<svg width="600" height="450" viewBox="0 0 800 600" fill="none" xmlns="http://www.w3.org/2000/svg" data-reactroot="">
<path d="M660.372 461.095C631.552 503.251 591.977 537.664 545.663 560.175C506.518 579.389 462.499 590 415.898 590C363.992 590 315.24 576.665 272.798 553.149C225.624 527.053 186.336 488.482 159.379 441.881C185.762 411.483 232.219 388.828 267.349 376.067L436.976 326.168L534.766 361.728C573.623 375.923 632.986 417.792 660.372 461.095Z" fill="#C3E5DB"></path>
<path opacity="0.5" d="M675.803 290.296C741.076 446.369 577.003 589.995 415.896 589.995C254.668 589.995 122.794 457.165 111.241 294.046C82.4313 -112.711 563.649 22.1291 675.803 290.296Z" fill="#98EED5"></path>
<path d="M536.915 222.787C536.915 240.28 522.72 254.475 505.227 254.475C487.733 254.475 473.538 240.28 473.538 222.787C473.538 208.305 483.145 196.117 496.48 192.246C499.204 191.385 502.215 190.955 505.37 190.955C509.958 190.955 514.26 191.959 518.275 193.679C529.172 198.698 536.915 209.739 536.915 222.787Z" fill="#FFAC52"></path>
<path fill-rule="evenodd" clip-rule="evenodd" d="M505.227 254.475C506.681 254.475 508.113 254.377 509.516 254.187L512.567 191.791C510.252 191.249 507.853 190.955 505.37 190.955C502.215 190.955 499.204 191.385 496.48 192.246C483.145 196.117 473.538 208.305 473.538 222.787C473.538 240.28 487.733 254.475 505.227 254.475Z" fill="black" fill-opacity="0.46"></path>
<path d="M370.019 222.785C370.019 240.278 355.824 254.474 338.33 254.474C291.506 254.474 303.461 183.03 345.356 191.67C359.408 194.968 370.019 207.586 370.019 222.785Z" fill="#FFAC52"></path>
<path fill-rule="evenodd" clip-rule="evenodd" d="M338.33 254.475C355.823 254.475 370.019 240.28 370.019 222.787C370.019 207.588 359.408 194.97 345.356 191.672L330.408 253.476C332.94 254.128 335.595 254.475 338.33 254.475Z" fill="black" fill-opacity="0.46"></path>
<path d="M490.317 313.836L459.919 432.417C457.195 443.028 450.312 451.774 440.849 457.797C426.223 467.26 405.575 470.558 384.498 465.109C363.42 459.661 346.787 446.899 338.614 431.557C333.309 421.663 331.444 410.766 334.169 400.155L364.567 281.574L490.317 313.836Z" fill="#FFAC52"></path>
<path d="M514.406 126.86L497.2 304.229C495.479 321.436 488.453 336.778 477.986 348.822C461.64 367.463 436.977 378.217 410.451 375.636C383.924 373.055 361.699 357.712 349.368 336.204C341.338 322.296 337.467 305.95 339.188 288.743L356.537 111.23L514.406 126.86Z" fill="#FECC70"></path>
<path d="M356.538 111.23L514.407 126.86L512.553 145.966C506.13 149.353 484.36 158.812 448.668 169.558C412.975 180.304 369.708 162.448 352.536 152.176L356.538 111.23Z" fill="#FFAC52"></path>
<path d="M522.723 137.758C528.601 148.081 530.752 167.582 524.156 183.068C522.579 186.939 520.428 190.524 517.991 193.679C514.119 191.958 511.108 190.954 506.52 190.954C505.373 190.954 504.082 190.954 502.935 191.098C501.071 191.241 499.351 191.671 497.63 192.101C497.63 190.524 497.773 188.66 497.773 186.653C497.773 166.722 495.049 158.119 495.909 150.949C470.96 159.552 436.547 164.141 392.958 160.986C380.913 160.126 370.159 155.824 361.412 149.659C357.398 149.946 348.381 184.779 348.381 197.265C339.869 195.847 339.946 188.384 328.147 192.675C323.272 186.653 318.396 179.053 314.525 171.597C310.94 164.571 298.896 139.765 305.205 110.227C306.925 101.911 310.654 84.7045 321.551 81.6934C328.147 79.8294 335.173 83.7008 342.199 87.859C351.662 68.215 374.747 55.1668 392.814 51.0086C420.058 44.843 443.286 57.3176 460.779 61.906C462.357 32.9419 486.302 10 515.697 10C546.095 10 570.757 34.6625 570.757 65.0605C570.901 69.3621 566.599 110.371 522.723 137.758Z" fill="#85D0CC"></path>
<path d="M522.722 137.758C515.24 142.155 499.402 150.949 495.909 150.949C495.562 153.844 495.799 156.973 496.205 160.986C505.786 157.351 525.045 148.849 525.429 143.92C524.658 141.634 523.747 139.556 522.722 137.758Z" fill="black" fill-opacity="0.23"></path>
<path d="M435.549 271.48C431.934 276.776 425.691 280.123 418.774 279.906C412.73 279.663 407.356 276.617 404.061 272.117C404.697 264.244 406.657 254.092 409.024 244.14C413.048 227.322 417.75 211.899 417.75 211.899L426.675 212.245C426.675 212.245 430.478 228.969 433.028 246.392C434.426 255.264 435.379 264.221 435.549 271.48Z" fill="#FFAC52"></path>
<path fill-rule="evenodd" clip-rule="evenodd" d="M367.006 184.32C343.862 184.32 325.1 203.083 325.1 226.227C325.1 249.372 343.862 268.134 367.006 268.134C390.151 268.134 408.913 249.372 408.913 226.227C408.913 203.083 390.151 184.32 367.006 184.32ZM319.727 226.227C319.727 200.115 340.895 178.947 367.006 178.947C393.118 178.947 414.286 200.115 414.286 226.227C414.286 252.339 393.118 273.507 367.006 273.507C340.895 273.507 319.727 252.339 319.727 226.227Z" fill="#131845"></path>
<path fill-rule="evenodd" clip-rule="evenodd" d="M477.268 184.32C454.124 184.32 435.361 203.083 435.361 226.227C435.361 249.372 454.124 268.134 477.268 268.134C500.413 268.134 519.175 249.372 519.175 226.227C519.175 203.083 500.413 184.32 477.268 184.32ZM429.988 226.227C429.988 200.115 451.156 178.947 477.268 178.947C503.38 178.947 524.548 200.115 524.548 226.227C524.548 252.339 503.38 273.507 477.268 273.507C451.156 273.507 429.988 252.339 429.988 226.227Z" fill="#131845"></path>
<path fill-rule="evenodd" clip-rule="evenodd" d="M431.384 228.015H411.453V217.557H431.384V228.015Z" fill="#131845"></path>
<path d="M488.028 216.764C488.028 219.632 487.168 222.356 485.734 224.65C483.296 228.522 478.995 231.103 473.976 231.39C473.833 231.39 473.546 231.39 473.403 231.39C465.373 231.39 458.777 224.794 458.777 216.764C458.777 214.327 459.351 211.889 460.498 209.882C462.219 206.584 465.23 204.003 468.958 202.856C470.392 202.425 471.826 202.139 473.403 202.139C481.432 202.139 488.028 208.591 488.028 216.764Z" fill="#131845"></path>
<path d="M471.967 208.017C471.967 211.315 469.386 213.896 466.088 213.896C463.507 213.896 461.213 212.176 460.496 209.881C462.217 206.584 465.228 204.003 468.956 202.855C470.82 203.859 471.967 205.723 471.967 208.017Z" fill="white"></path>
<path d="M485.731 224.505C483.293 228.52 478.992 231.101 473.973 231.245C471.679 229.954 470.102 227.373 470.102 224.505C470.102 220.204 473.543 216.619 477.988 216.619C482.433 216.619 485.731 220.204 485.731 224.505Z" fill="white"></path>
<path d="M381.775 216.764C381.775 219.632 380.915 222.356 379.481 224.65C377.044 228.522 372.742 231.103 367.723 231.39C367.58 231.39 367.293 231.39 367.15 231.39C359.12 231.39 352.524 224.794 352.524 216.764C352.524 214.327 353.098 211.889 354.245 209.882C355.966 206.584 358.977 204.003 362.705 202.856C364.139 202.425 365.573 202.139 367.15 202.139C375.323 202.139 381.775 208.591 381.775 216.764Z" fill="#131845"></path>
<path d="M365.862 208.017C365.862 211.315 363.281 213.896 359.983 213.896C357.402 213.896 355.108 212.176 354.391 209.881C356.111 206.584 359.122 204.003 362.85 202.855C364.571 203.859 365.862 205.723 365.862 208.017Z" fill="white"></path>
<path d="M379.48 224.505C377.042 228.52 372.741 231.101 367.722 231.245C365.428 229.954 363.851 227.373 363.851 224.505C363.851 220.204 367.292 216.619 371.737 216.619C376.182 216.619 379.48 220.204 379.48 224.505Z" fill="white"></path>
<path opacity="0.5" d="M362.843 264.942C387.471 264.942 407.437 244.977 407.437 220.349C407.437 195.721 387.471 175.756 362.843 175.756C338.215 175.756 318.25 195.721 318.25 220.349C318.25 244.977 338.215 264.942 362.843 264.942Z" fill="#98EED5"></path>
<path opacity="0.5" d="M473.109 264.942C497.737 264.942 517.702 244.977 517.702 220.349C517.702 195.721 497.737 175.756 473.109 175.756C448.481 175.756 428.516 195.721 428.516 220.349C428.516 244.977 448.481 264.942 473.109 264.942Z" fill="#98EED5"></path>
<path d="M396.113 330.184L420.775 335.919C420.775 335.919 414.609 342.802 414.036 342.658C413.462 342.515 387.939 334.629 387.939 334.629L396.113 330.184Z" fill="#FFAC52"></path>
<path d="M427.939 313.119C426.935 316.848 425.358 322.009 420.483 324.017C419.479 324.447 418.475 324.734 417.185 324.877C410.302 325.738 403.42 320.002 403.133 314.267C403.133 313.836 403.133 313.406 403.276 312.833C403.42 311.829 403.706 310.682 403.993 309.678C404.853 306.667 406.144 303.799 407.865 301.362C411.306 296.343 416.181 293.475 420.769 294.049C424.641 294.623 427.365 297.777 428.512 302.222C429.086 305.52 428.942 309.248 427.939 313.119Z" fill="#131845"></path>
<path d="M428.656 302.524C421.2 302.524 413.457 301.938 407.722 301.508C411.163 296.489 416.176 293.304 420.764 293.877C424.636 294.451 427.652 298.079 428.656 302.524Z" fill="white"></path>
<path d="M420.483 324.16C419.479 324.591 418.475 324.877 417.185 325.021C410.302 325.881 403.42 320.146 403.133 314.41C408.151 316.561 417.041 321.149 420.483 324.16Z" fill="#EF5BD6"></path>
<path opacity="0.79" d="M538.637 196.689C521.861 198.983 510.39 214.182 506.806 231.819C503.221 214.182 489.169 200.13 471.676 196.689C485.728 193.104 495.621 183.784 505.085 166.291C514.979 183.497 522.148 189.663 538.637 196.689Z" fill="white"></path>
<path fill-rule="evenodd" clip-rule="evenodd" d="M540.363 196.689C539.971 196.522 539.584 196.355 539.202 196.189C523.744 189.456 516.663 183.259 507.204 166.972C507.073 166.747 506.942 166.52 506.81 166.291C506.685 166.523 506.56 166.753 506.434 166.982C497.406 183.444 487.942 192.515 474.818 196.304C474.351 196.439 473.878 196.567 473.401 196.689C473.882 196.784 474.361 196.886 474.836 196.997C491.144 200.786 504.222 213.833 508.183 230.253C508.308 230.771 508.424 231.293 508.531 231.819C508.638 231.293 508.752 230.77 508.872 230.25C512.703 213.724 523.512 199.655 539.119 196.884C539.53 196.811 539.945 196.746 540.363 196.689ZM538.037 196.41C530.811 193.204 525.394 190.053 520.665 185.807C515.708 181.356 511.541 175.732 506.827 167.659C498.058 183.534 488.795 192.607 476.101 196.617C491.732 200.682 504.256 213.153 508.519 228.862C512.547 213.048 522.987 199.557 538.037 196.41Z" fill="white" fill-opacity="0.6"></path>
<path fill-rule="evenodd" clip-rule="evenodd" d="M428.515 196.689C428.123 196.522 427.736 196.355 427.354 196.189C411.897 189.456 404.815 183.259 395.356 166.972C395.226 166.747 395.095 166.52 394.963 166.291C394.837 166.523 394.712 166.753 394.587 166.982C385.558 183.444 376.094 192.515 362.97 196.304C362.503 196.439 362.031 196.567 361.554 196.689C362.035 196.784 362.513 196.886 362.989 196.997C379.297 200.786 392.374 213.833 396.336 230.253C396.461 230.771 396.577 231.293 396.683 231.819C396.79 231.293 396.904 230.77 397.025 230.25C400.855 213.724 411.664 199.655 427.271 196.884C427.682 196.811 428.097 196.746 428.515 196.689ZM426.19 196.41C418.963 193.204 413.546 190.053 408.817 185.807C403.86 181.356 399.693 175.732 394.98 167.659C386.21 183.534 376.948 192.607 364.254 196.617C379.884 200.682 392.408 213.153 396.672 228.862C400.699 213.048 411.139 199.557 426.19 196.41Z" fill="white" fill-opacity="0.6"></path>
<path opacity="0.79" d="M426.943 196.689C410.167 198.983 398.696 214.182 395.111 231.819C391.527 214.182 377.475 200.13 359.981 196.689C374.033 193.104 383.927 183.784 393.391 166.291C403.428 183.497 410.597 189.663 426.943 196.689Z" fill="white"></path>
</svg>
